<svg xmlns="http://www.w3.org/2000/svg" xmlns:xlink="http://www.w3.org/1999/xlink" version="1.1" x="0px" y="0px" viewBox="0 0 500 625" style="enable-background:new 0 0 500 500;" xml:space="preserve"><g><g><g><path d="M462.7,250c-0.1,44.4-14,87.7-39.8,123.9c-24.6,34.5-59.9,61.4-99.7,75.9c-42.1,15.3-88.5,17-131.6,4.7     c-41.5-11.8-78.5-36.4-106-69.7C28.6,316,22,215.4,68.4,139.3c22.2-36.5,55.4-65.6,94.2-83.3c40.1-18.3,86.3-23.3,129.4-14.5     c42.7,8.7,81.9,30.4,112,61.9c29.8,31.3,49.4,71.3,56.2,114C461.9,228.2,462.6,239.1,462.7,250c0,9.7,15,9.7,15,0     c-0.1-46.9-14.6-93.3-41.8-131.5C409.1,81,371.6,52.2,328.4,36.2c-44.6-16.5-94.5-18.3-140.2-5.4C143.9,43.3,103.7,69.5,74.5,105     C44.8,141.3,26.7,185.7,23,232.5c-3.7,47,7.6,94.9,32.1,135.2c23.6,38.9,59,70.7,100.5,89.5c43.7,19.7,92.7,25.3,139.7,15.9     c45.1-9,87-32.3,118.8-65.4c32.1-33.4,53.8-76.6,60.7-122.4c1.8-11.7,2.7-23.4,2.8-35.3C477.7,240.3,462.7,240.3,462.7,250z"/></g></g><g><g><path d="M242.5,113.7c0,37.4,0,74.7,0,112.1c0,7.1,0,14.2,0,21.4c0,4.3,1.4,7.3,4.4,10.3c14,14,28,28,41.9,41.9     c12.8,12.8,25.6,25.6,38.5,38.5c6.8,6.8,17.4-3.8,10.6-10.6c-24.1-24.1-48.1-48.1-72.2-72.2c-3.5-3.5-6.9-6.9-10.4-10.4     c0.7,1.8,1.5,3.5,2.2,5.3c0-39.8,0-79.6,0-119.5c0-5.6,0-11.2,0-16.8C257.5,104.1,242.5,104,242.5,113.7L242.5,113.7z"/></g></g></g><text x="0" y="515" fill="#000000" font-size="5px" font-weight="bold" font-family="'Helvetica Neue', Helvetica, Arial-Unicode, Arial, Sans-serif">Created by Neha Tyagi</text><text x="0" y="520" fill="#000000" font-size="5px" font-weight="bold" font-family="'Helvetica Neue', Helvetica, Arial-Unicode, Arial, Sans-serif">from the Noun Project</text></svg>