<svg xmlns="http://www.w3.org/2000/svg" xmlns:xlink="http://www.w3.org/1999/xlink" xml:space="preserve" version="1.1" style="shape-rendering:geometricPrecision;text-rendering:geometricPrecision;image-rendering:optimizeQuality;" viewBox="0 0 847 1058.75" x="0px" y="0px" fill-rule="evenodd" clip-rule="evenodd"><defs><style type="text/css">
   
    .fil0 {fill:black}
   
  </style></defs><g><path class="fil0" d="M421 22c114,0 206,92 206,206 0,114 -92,206 -206,206 -114,0 -207,-92 -207,-206 0,-114 93,-206 207,-206zm0 23c100,0 182,82 182,183 0,101 -82,182 -182,182 -101,0 -183,-81 -183,-182 0,-101 82,-183 183,-183zm-136 465c92,0 185,0 277,0 77,0 141,64 141,141 0,58 0,116 0,174 8,0 16,0 24,0 0,-58 0,-116 0,-174 0,-91 -74,-164 -165,-164 -92,0 -185,0 -277,0 -91,0 -165,73 -165,164 0,58 0,116 0,174 8,0 16,0 24,0 0,-58 0,-116 0,-174 0,-77 63,-141 141,-141z"/></g><text x="0" y="862" fill="#000000" font-size="5px" font-weight="bold" font-family="'Helvetica Neue', Helvetica, Arial-Unicode, Arial, Sans-serif">Created by amantaka</text><text x="0" y="867" fill="#000000" font-size="5px" font-weight="bold" font-family="'Helvetica Neue', Helvetica, Arial-Unicode, Arial, Sans-serif">from the Noun Project</text></svg>