<svg xmlns="http://www.w3.org/2000/svg" xmlns:xlink="http://www.w3.org/1999/xlink" version="1.1" x="0px" y="0px" viewBox="0 0 100 125" style="enable-background:new 0 0 100 100;" xml:space="preserve"><style type="text/css">
	.st0{fill:none;stroke:#000000;stroke-width:2;stroke-linecap:round;stroke-linejoin:round;stroke-miterlimit:10;}
</style><path d="M49.6,88.8c0.2,0.2,0.5,0.4,0.8,0.4c0,0,0,0,0,0c0.3,0,0.6-0.1,0.8-0.4c1-1.3,25.5-33.1,25.5-50.3  c0-14.5-11.8-26.2-26.2-26.2S24.1,24.1,24.1,38.5c0,7.9,4.3,18.8,12.8,32.3C43.2,80.9,49.6,88.8,49.6,88.8z M50.4,14.3  c13.4,0,24.2,10.9,24.2,24.2c0,14.8-20,42.4-24.3,48c-4.3-5.5-24.2-31.9-24.2-48C26.1,25.2,37,14.3,50.4,14.3z"/><path d="M62.5,37.7c0-6.7-5.4-12.1-12.1-12.1s-12.1,5.4-12.1,12.1s5.4,12.1,12.1,12.1S62.5,44.4,62.5,37.7z M40.2,37.7  c0-5.6,4.6-10.1,10.1-10.1s10.1,4.6,10.1,10.1S56,47.9,50.4,47.9S40.2,43.3,40.2,37.7z"/><text x="0" y="115" fill="#000000" font-size="5px" font-weight="bold" font-family="'Helvetica Neue', Helvetica, Arial-Unicode, Arial, Sans-serif">Created by Made by Made</text><text x="0" y="120" fill="#000000" font-size="5px" font-weight="bold" font-family="'Helvetica Neue', Helvetica, Arial-Unicode, Arial, Sans-serif">from the Noun Project</text></svg>