<svg xmlns="http://www.w3.org/2000/svg" xmlns:xlink="http://www.w3.org/1999/xlink" xml:space="preserve" version="1.1" style="shape-rendering:geometricPrecision;text-rendering:geometricPrecision;image-rendering:optimizeQuality;" viewBox="0 0 2540 3175" x="0px" y="0px" fill-rule="evenodd" clip-rule="evenodd"><defs><style type="text/css">
   
    .fil0 {fill:black;fill-rule:nonzero}
   
  </style></defs><g><path class="fil0" d="M189 998l165 -125 0 -347c0,-14 12,-26 26,-26l464 0 411 -313c9,-7 22,-6 31,1l410 312 464 0c14,0 26,12 26,26l0 347 165 125c7,5 11,13 11,21l0 1313c0,14 -11,26 -25,26l-2134 0c-14,0 -25,-12 -25,-26l0 -1313c0,-8 4,-16 11,-21zm165 -62l-109 83 109 84 0 -167zm51 205l865 659 865 -659 0 -590 -1730 0 0 590zm1781 -38l109 -84 -109 -83 0 167zm-1259 -603l686 0 -343 -261 -343 261zm1348 1807l-689 -684 -300 228c-9,7 -22,8 -31,1l-301 -229 -689 684 2010 0zm-648 -715l684 680 0 -1201 -684 521zm-1398 -521l0 1201 684 -680 -684 -521z"/></g><text x="0" y="2555" fill="#000000" font-size="5px" font-weight="bold" font-family="'Helvetica Neue', Helvetica, Arial-Unicode, Arial, Sans-serif">Created by Danishicon</text><text x="0" y="2560" fill="#000000" font-size="5px" font-weight="bold" font-family="'Helvetica Neue', Helvetica, Arial-Unicode, Arial, Sans-serif">from the Noun Project</text></svg>